<mxfile host="app.diagrams.net" agent="Mozilla/5.0 (Windows NT 10.0; Win64; x64) AppleWebKit/537.36 (KHTML, like Gecko) Chrome/131.0.0.0 Safari/537.36 Edg/131.0.0.0" version="25.0.3">
  <diagram name="Page-1" id="2W5m3ha-27jdbuHL4DJP">
    <mxGraphModel dx="786" dy="511" grid="1" gridSize="10" guides="1" tooltips="1" connect="1" arrows="1" fold="1" page="1" pageScale="1" pageWidth="850" pageHeight="1100" math="0" shadow="0">
      <root>
        <mxCell id="0" />
        <mxCell id="1" parent="0" />
        <mxCell id="L_x-DngGAnLaTXB3gGMi-3" value="" style="edgeStyle=orthogonalEdgeStyle;rounded=0;orthogonalLoop=1;jettySize=auto;html=1;" edge="1" parent="1" source="L_x-DngGAnLaTXB3gGMi-1" target="L_x-DngGAnLaTXB3gGMi-2">
          <mxGeometry relative="1" as="geometry" />
        </mxCell>
        <mxCell id="L_x-DngGAnLaTXB3gGMi-1" value="inicio" style="ellipse;whiteSpace=wrap;html=1;aspect=fixed;" vertex="1" parent="1">
          <mxGeometry x="340" y="10" width="120" height="120" as="geometry" />
        </mxCell>
        <mxCell id="L_x-DngGAnLaTXB3gGMi-5" value="" style="edgeStyle=orthogonalEdgeStyle;rounded=0;orthogonalLoop=1;jettySize=auto;html=1;" edge="1" parent="1" source="L_x-DngGAnLaTXB3gGMi-2" target="L_x-DngGAnLaTXB3gGMi-4">
          <mxGeometry relative="1" as="geometry" />
        </mxCell>
        <mxCell id="L_x-DngGAnLaTXB3gGMi-2" value="Mostrar mensaje: &quot;Por favor, ingrese la edad del cliente&quot;&amp;nbsp;" style="shape=parallelogram;perimeter=parallelogramPerimeter;whiteSpace=wrap;html=1;fixedSize=1;" vertex="1" parent="1">
          <mxGeometry x="230" y="180" width="340" height="80" as="geometry" />
        </mxCell>
        <mxCell id="L_x-DngGAnLaTXB3gGMi-7" value="" style="edgeStyle=orthogonalEdgeStyle;rounded=0;orthogonalLoop=1;jettySize=auto;html=1;" edge="1" parent="1" source="L_x-DngGAnLaTXB3gGMi-4" target="L_x-DngGAnLaTXB3gGMi-6">
          <mxGeometry relative="1" as="geometry" />
        </mxCell>
        <mxCell id="L_x-DngGAnLaTXB3gGMi-10" value="" style="edgeStyle=orthogonalEdgeStyle;rounded=0;orthogonalLoop=1;jettySize=auto;html=1;" edge="1" parent="1" source="L_x-DngGAnLaTXB3gGMi-4" target="L_x-DngGAnLaTXB3gGMi-9">
          <mxGeometry relative="1" as="geometry" />
        </mxCell>
        <mxCell id="L_x-DngGAnLaTXB3gGMi-4" value="Si edad &amp;gt;= 18" style="rhombus;whiteSpace=wrap;html=1;" vertex="1" parent="1">
          <mxGeometry x="290" y="300" width="220" height="160" as="geometry" />
        </mxCell>
        <mxCell id="L_x-DngGAnLaTXB3gGMi-6" value="Asignarle a la varible permitido&amp;nbsp;&lt;div&gt;que sea verdadero&amp;nbsp;&lt;/div&gt;" style="rounded=1;whiteSpace=wrap;html=1;" vertex="1" parent="1">
          <mxGeometry x="550" y="330" width="220" height="100" as="geometry" />
        </mxCell>
        <mxCell id="L_x-DngGAnLaTXB3gGMi-8" value="Si" style="text;html=1;align=center;verticalAlign=middle;resizable=0;points=[];autosize=1;strokeColor=none;fillColor=none;" vertex="1" parent="1">
          <mxGeometry x="505" y="338" width="30" height="30" as="geometry" />
        </mxCell>
        <mxCell id="L_x-DngGAnLaTXB3gGMi-13" value="" style="edgeStyle=orthogonalEdgeStyle;rounded=0;orthogonalLoop=1;jettySize=auto;html=1;" edge="1" parent="1" source="L_x-DngGAnLaTXB3gGMi-9" target="L_x-DngGAnLaTXB3gGMi-12">
          <mxGeometry relative="1" as="geometry" />
        </mxCell>
        <mxCell id="L_x-DngGAnLaTXB3gGMi-9" value="Asignarle a la varialble premitido que sea falso&amp;nbsp;" style="rounded=1;whiteSpace=wrap;html=1;" vertex="1" parent="1">
          <mxGeometry x="270" y="510" width="260" height="80" as="geometry" />
        </mxCell>
        <mxCell id="L_x-DngGAnLaTXB3gGMi-11" value="No" style="text;html=1;align=center;verticalAlign=middle;resizable=0;points=[];autosize=1;strokeColor=none;fillColor=none;" vertex="1" parent="1">
          <mxGeometry x="400" y="468" width="40" height="30" as="geometry" />
        </mxCell>
        <mxCell id="L_x-DngGAnLaTXB3gGMi-19" value="" style="edgeStyle=orthogonalEdgeStyle;rounded=0;orthogonalLoop=1;jettySize=auto;html=1;" edge="1" parent="1" source="L_x-DngGAnLaTXB3gGMi-12" target="L_x-DngGAnLaTXB3gGMi-18">
          <mxGeometry relative="1" as="geometry" />
        </mxCell>
        <mxCell id="L_x-DngGAnLaTXB3gGMi-28" value="" style="edgeStyle=orthogonalEdgeStyle;rounded=0;orthogonalLoop=1;jettySize=auto;html=1;" edge="1" parent="1" source="L_x-DngGAnLaTXB3gGMi-12" target="L_x-DngGAnLaTXB3gGMi-27">
          <mxGeometry relative="1" as="geometry" />
        </mxCell>
        <mxCell id="L_x-DngGAnLaTXB3gGMi-12" value="Esta permitido el ingreso segun la edad ?&amp;nbsp;" style="rhombus;whiteSpace=wrap;html=1;rounded=1;" vertex="1" parent="1">
          <mxGeometry x="260" y="640" width="280" height="220" as="geometry" />
        </mxCell>
        <mxCell id="L_x-DngGAnLaTXB3gGMi-16" value="" style="curved=1;endArrow=classic;html=1;rounded=0;entryX=0.5;entryY=0;entryDx=0;entryDy=0;" edge="1" parent="1" target="L_x-DngGAnLaTXB3gGMi-12">
          <mxGeometry width="50" height="50" relative="1" as="geometry">
            <mxPoint x="660" y="430" as="sourcePoint" />
            <mxPoint x="710" y="380" as="targetPoint" />
            <Array as="points">
              <mxPoint x="710" y="430" />
              <mxPoint x="610" y="460" />
              <mxPoint x="590" y="520" />
              <mxPoint x="640" y="670" />
            </Array>
          </mxGeometry>
        </mxCell>
        <mxCell id="L_x-DngGAnLaTXB3gGMi-18" value="Mostrar mensaje: &quot;Puede ingresar al boliche&quot;" style="shape=parallelogram;perimeter=parallelogramPerimeter;whiteSpace=wrap;html=1;fixedSize=1;" vertex="1" parent="1">
          <mxGeometry x="570" y="700" width="270" height="100" as="geometry" />
        </mxCell>
        <mxCell id="L_x-DngGAnLaTXB3gGMi-23" value="Si" style="text;html=1;align=center;verticalAlign=middle;resizable=0;points=[];autosize=1;strokeColor=none;fillColor=none;" vertex="1" parent="1">
          <mxGeometry x="545" y="718" width="30" height="30" as="geometry" />
        </mxCell>
        <mxCell id="L_x-DngGAnLaTXB3gGMi-24" value="NO" style="text;html=1;align=center;verticalAlign=middle;resizable=0;points=[];autosize=1;strokeColor=none;fillColor=none;" vertex="1" parent="1">
          <mxGeometry x="420" y="858" width="40" height="30" as="geometry" />
        </mxCell>
        <mxCell id="L_x-DngGAnLaTXB3gGMi-30" value="" style="edgeStyle=orthogonalEdgeStyle;rounded=0;orthogonalLoop=1;jettySize=auto;html=1;" edge="1" parent="1" source="L_x-DngGAnLaTXB3gGMi-27" target="L_x-DngGAnLaTXB3gGMi-29">
          <mxGeometry relative="1" as="geometry" />
        </mxCell>
        <mxCell id="L_x-DngGAnLaTXB3gGMi-27" value="Mostrar mensaje: &quot;Lo sentimos mecho, no se puede ingresar a la dicoteca siendo menor de edad&quot;" style="shape=parallelogram;perimeter=parallelogramPerimeter;whiteSpace=wrap;html=1;fixedSize=1;rounded=1;" vertex="1" parent="1">
          <mxGeometry x="180" y="888" width="440" height="122" as="geometry" />
        </mxCell>
        <mxCell id="L_x-DngGAnLaTXB3gGMi-29" value="Fin" style="ellipse;whiteSpace=wrap;html=1;aspect=fixed;" vertex="1" parent="1">
          <mxGeometry x="330" y="1070" width="140" height="140" as="geometry" />
        </mxCell>
      </root>
    </mxGraphModel>
  </diagram>
</mxfile>
